<svg xmlns="http://www.w3.org/2000/svg" viewBox="0 0 447.89 416">
  <path
    d="M322.57,240c-60.75,0-95.87-49.25-78.45-110S324.91,20,385.66,20c18.4,0,34.45,4.53,47.41,12.52C416,12.28,389.37,0,356.39,0c-37,0-74.75,15.43-105.52,40.2C234.3,15.43,205.36,0,168.39,0,133.87,0,98.64,13.46,69.07,35.41,88.32,25.63,109.14,20,129.66,20c60.75,0,95.88,49.25,78.46,110S127.33,240,66.57,240c-20.52,0-38.11-5.63-51.75-15.41,17,21.95,44.5,35.41,79,35.41,37,0,74.75-15.43,105.53-40.2,16.56,24.77,45.5,40.2,82.47,40.2,33,0,66.6-12.28,95.32-32.52C359.63,235.47,341,240,322.57,240Z"/>
  <path
    d="M52.87,304h-20a1.44,1.44,0,0,0-1.29,1L0,415a.73.73,0,0,0,.71,1h20A1.43,1.43,0,0,0,22,415L53.58,305A.73.73,0,0,0,52.87,304Z"/>
  <path
    d="M427.06,394h-25a2.91,2.91,0,0,1-2.85-4l12.62-44h19a1.41,1.41,0,0,0,1.05-.55l15.73-20a1.06,1.06,0,0,0,.24-1,.72.72,0,0,0-.72-.47h-29l5.45-19a.73.73,0,0,0-.71-1h-20a1.44,1.44,0,0,0-1.29,1l-5.45,19h-39c-11.58,0-23.7,9.42-27,21l-14.05,49h-73l3.73-13h44c11.58,0,23.7-9.42,27-21l4.3-15c3.32-11.58-3.4-21-15-21h-140c-11.58,0-23.7,9.42-27,21l-4.3,15c-3.32,11.58,3.4,21,15,21h40a2.91,2.91,0,0,1,2.85,4l-1.43,5a5.73,5.73,0,0,1-5.15,4h-69l14.05-49c3.32-11.58-3.4-21-15-21h-60a1.43,1.43,0,0,0-1.28,1L30,415a.73.73,0,0,0,.71,1h20A1.43,1.43,0,0,0,52,415l19.79-69h34a2.91,2.91,0,0,1,2.85,4L90,415a.73.73,0,0,0,.71,1h95c11.57,0,23.69-9.42,27-21l4.31-15c3.32-11.58-3.4-21-15-21h-40a2.91,2.91,0,0,1-2.85-4l1.44-5a5.73,5.73,0,0,1,5.14-4h69l-14.06,49c-3.32,11.58,3.4,21,15,21h95a1.43,1.43,0,0,0,1.29-1l18.64-65a5.73,5.73,0,0,1,5.15-4h34l-14.05,49c-3.32,11.58,3.39,21,15,21h30a1.43,1.43,0,0,0,1.29-1l5.74-20A.73.73,0,0,0,427.06,394ZM298.68,350l-1.43,5a5.75,5.75,0,0,1-5.15,4h-39l2.58-9a5.73,5.73,0,0,1,5.15-4h35A2.91,2.91,0,0,1,298.68,350Z"/>
</svg>
