<svg xmlns="http://www.w3.org/2000/svg" viewBox="0 0 418.24 260">
  <path
    d="M307.75,240c-60.75,0-95.88-49.25-78.46-110S310.08,20,370.84,20c18.4,0,34.45,4.53,47.4,12.52C401.13,12.28,374.55,0,341.57,0,304.6,0,266.82,15.43,236,40.2,219.48,15.43,190.54,0,153.57,0,119.05,0,83.82,13.46,54.25,35.41,73.49,25.63,94.31,20,114.84,20c60.75,0,95.87,49.25,78.45,110S112.5,240,51.75,240C31.23,240,13.64,234.37,0,224.59,17,246.54,44.5,260,79,260c37,0,74.75-15.43,105.52-40.2C201.11,244.57,230.05,260,267,260c33,0,66.6-12.28,95.32-32.52C344.8,235.47,326.16,240,307.75,240Z"/>
</svg>
