<svg xmlns="http://www.w3.org/2000/svg" viewBox="0 0 739.62 260">
  <polygon points="294.62 185 314.62 185 346.16 75 326.16 75 294.62 185"/>
  <path
    d="M724.69,115l14.93-20H710.43l5.73-20h-20l-5.73,20h-40c-11,0-22.57,9-25.74,20l-14.33,50h-75l4.3-15h55c5.52,0,11.28-4.48,12.87-10l7.16-25c3.17-11-3.21-20-14.26-20h-140c-11.05,0-22.57,9-25.74,20l-4.3,15c-3.16,11.05,3.22,20,14.27,20h40c2.76,0,4.36,2.24,3.56,5l-1.43,5a7.16,7.16,0,0,1-6.43,5h-70l14.33-50c3.17-11-3.21-20-14.26-20h-60l-25.81,90h20l20.07-70h35c2.76,0,4.35,2.24,3.56,5l-18.64,65h95c11.05,0,22.57-8.95,25.74-20l4.3-15c3.17-11.05-3.22-20-14.26-20h-40c-2.76,0-4.36-2.24-3.56-5l1.43-5a7.16,7.16,0,0,1,6.43-5h70l-14.33,50c-3.17,11.05,3.21,20,14.26,20h95l18.64-65a7.16,7.16,0,0,1,6.43-5h35l-14.33,50c-3.17,11.05,3.22,20,14.26,20h30l5.74-20h-25c-2.76,0-4.36-2.24-3.57-5l12.9-45Zm-170,0h35c2.77,0,4.36,2.24,3.57,5l-2.87,10h-45l2.87-10A7.16,7.16,0,0,1,554.69,115Z"/>
  <path
    d="M307.75,240c-60.75,0-95.88-49.25-78.46-110S310.08,20,370.84,20c18.4,0,34.45,4.53,47.4,12.52C401.13,12.28,374.55,0,341.57,0,304.6,0,266.82,15.43,236,40.2,219.48,15.43,190.54,0,153.57,0,119.05,0,83.82,13.46,54.25,35.41,73.49,25.63,94.31,20,114.84,20c60.75,0,95.87,49.25,78.45,110S112.5,240,51.75,240C31.23,240,13.64,234.37,0,224.59,17,246.54,44.5,260,79,260c37,0,74.75-15.43,105.52-40.2C201.11,244.57,230.05,260,267,260c33,0,66.6-12.28,95.32-32.52C344.8,235.47,326.16,240,307.75,240Z"/>
</svg>
